<svg width="205" height="19" viewBox="0 0 205 19" fill="none" xmlns="http://www.w3.org/2000/svg">
<g clip-path="url(#clip0_725_1501)">
<path d="M23.0228 3.19532V0.366211H17.6849V3.19532L12.4346 18.6361H28.2732L23.0228 3.19532ZM18.2082 14.7107L20.3549 7.98412L22.5016 14.7107H18.2102H18.2082Z" fill="black"/>
<path d="M10.6997 14.6152V18.6341H0V0.366211H4.17602V14.6152H10.6997Z" fill="black"/>
<path d="M44.3665 13.2842C44.3665 16.5212 41.7304 18.6341 38.4676 18.6341H30.7939V0.366211H37.9443C41.1276 0.366211 43.712 2.42736 43.712 5.58674C43.712 7.10077 43.1111 8.30045 42.1203 9.16192C43.4772 10.0234 44.3645 11.432 44.3645 13.2862L44.3665 13.2842ZM34.972 4.27962V7.51658H37.9463C38.8854 7.51658 39.5379 6.83815 39.5379 5.89909C39.5379 4.96003 38.9112 4.28161 37.9463 4.28161H34.972V4.27962ZM40.1925 12.9699C40.1925 11.9512 39.514 11.2211 38.4695 11.2211H34.972V14.7187H38.4695C39.514 14.7187 40.1925 13.9885 40.1925 12.9699Z" fill="black"/>
<path d="M83.8012 3.19532V0.366211H78.4633V3.19532L73.2129 18.6361H89.0515L83.8012 3.19532ZM78.9865 14.7107L81.1332 7.98412L83.2799 14.7107H78.9885H78.9865Z" fill="black"/>
<path d="M119.03 3.19532V0.366211H113.692V3.19532L108.441 18.6361H124.28L119.03 3.19532ZM114.215 14.7107L116.362 7.98412L118.508 14.7107H114.217H114.215Z" fill="black"/>
<path d="M70.6975 18.6341H66.5215V8.01197L61.7984 15.7632H61.3289L56.6057 8.01197V18.6341H52.4297V0.366211H56.6057L61.5636 8.48349L66.5215 0.366211H70.6975V18.6341Z" fill="black"/>
<path d="M105.931 0.366211V18.6341H102.799L95.7522 8.71627V18.6341H91.5762V0.366211H94.7077L101.755 10.284V0.366211H105.931Z" fill="black"/>
<path d="M143.499 10.0213C143.499 15.6059 139.609 19 134.494 19C128.752 19 124.628 14.7723 124.628 9.52586C124.628 4.27948 128.83 0 134.208 0C137.705 0 140.654 1.72293 142.193 4.17602L138.644 6.21131C137.888 5.01162 136.243 4.07058 134.182 4.07058C131.102 4.07058 128.806 6.34063 128.806 9.55173C128.806 12.7628 130.998 14.9274 134.548 14.9274C136.975 14.9274 138.567 13.8571 139.219 12.1083H134.339V8.45351H143.499V10.0193V10.0213Z" fill="black"/>
<path d="M165.837 12.6317H163.854V18.6341H159.678V0.366211H166.985C170.457 0.366211 173.248 3.15752 173.248 6.62925C173.248 8.87344 171.891 10.9087 169.882 11.9274L173.772 18.6341H169.283L165.837 12.6317ZM163.854 8.97689H166.985C168.133 8.97689 169.072 7.95826 169.072 6.62726C169.072 5.29627 168.133 4.27763 166.985 4.27763H163.854V8.97491V8.97689Z" fill="black"/>
<path d="M150.023 11.4558V8.21888V7.33155V4.49051H157.153V0.366211H150.023H145.857V7.33155H145.847V18.6341H157.153V14.5635H150.023V12.7868V11.4558Z" fill="black"/>
<path d="M201.392 1.65345V0.125488H198.75V1.65345C197.071 2.1946 195.857 3.74842 195.857 5.66036C195.857 8.0458 197.745 9.87418 200.071 9.87418C202.397 9.87418 204.285 8.0458 204.285 5.66036C204.285 3.74842 203.071 2.1946 201.392 1.65345ZM200.071 7.94434C198.82 7.94434 197.833 7.03313 197.833 5.66235C197.833 4.29156 198.82 3.38036 200.071 3.38036C201.323 3.38036 202.309 4.29156 202.309 5.66235C202.309 7.03313 201.321 7.94434 200.071 7.94434Z" fill="#FEC741"/>
<path d="M187.161 3.50967C187.161 5.2505 185.761 6.65312 183.952 6.65312H182.577V9.53396H180.482V0.366211H183.952C185.759 0.366211 187.161 1.76684 187.161 3.50967ZM185.066 3.50967C185.066 2.84118 184.595 2.33187 183.952 2.33187H182.577V4.68946H183.952C184.595 4.68946 185.066 4.17815 185.066 3.51166V3.50967Z" fill="#FEC741"/>
<path d="M191.298 6.52181H190.303V9.53396H188.208V0.366211H191.875C193.616 0.366211 195.018 1.76684 195.018 3.50967C195.018 4.63574 194.338 5.65836 193.329 6.16768L195.281 9.53396H193.029L191.3 6.52181H191.298ZM190.303 4.68747H191.875C192.452 4.68747 192.923 4.17616 192.923 3.50967C192.923 2.84317 192.452 2.33187 191.875 2.33187H190.303V4.68946V4.68747Z" fill="#FEC741"/>
</g>
<defs>
<clipPath id="clip0_725_1501">
<rect width="204.287" height="19" fill="white"/>
</clipPath>
</defs>
</svg>
